<svg width="65" height="77" viewBox="0 0 65 77" fill="none" xmlns="http://www.w3.org/2000/svg">
<g id="Logo">
<g id="Dot">
<ellipse id="white dot" cx="60.4633" cy="63.1791" rx="4.352" ry="4.8197" fill="white"/>
</g>
<g id="white">
<g id="highlites horizontal" style="mix-blend-mode:luminosity">
<path id="top white" d="M23.7573 39.5038C22.2459 41.1938 23.4418 44.0819 25.6635 44.1073L37.3938 44.2415C38.0925 44.2495 38.7518 43.944 39.2132 43.3984L52.8669 27.253C54.3127 25.5434 53.1049 22.7266 50.9155 22.7015L39.9633 22.5762C39.2881 22.5685 38.6485 22.8536 38.1892 23.3673L23.7573 39.5038Z" fill="white"/>
<path id="bottom white" d="M39.201 49.6569C38.6749 49.0449 37.9275 48.7124 37.169 48.7531L26.8185 49.3086C24.7172 49.4213 23.7646 52.107 25.226 53.7984L36.8413 67.2427C37.3369 67.8164 38.0291 68.1444 38.7439 68.1444L49.5108 68.1444C51.674 68.1444 52.7282 65.3968 51.2327 63.6567L39.201 49.6569Z" fill="white"/>
</g>
<path id="Vertical white" d="M7.19311 46.2218C7.19321 48.3542 9.58551 49.5242 11.3008 48.2306L18.4443 42.8436C19.1214 42.333 19.5228 41.5314 19.5228 40.6896L19.5228 5.61965C19.5228 3.3959 16.9479 2.25777 15.2611 3.7359L8.11585 9.99703C7.52975 10.5106 7.19137 11.2532 7.19141 12.0259L7.19311 46.2218Z" fill="white"/>
</g>
</g>
</svg>
