<?xml version="1.0" standalone="no"?>
<!DOCTYPE svg PUBLIC "-//W3C//DTD SVG 20010904//EN"
 "http://www.w3.org/TR/2001/REC-SVG-20010904/DTD/svg10.dtd">
<svg version="1.0" xmlns="http://www.w3.org/2000/svg"
 width="1080.000000pt" height="1350.000000pt" viewBox="0 0 1080.000000 1350.000000"
 preserveAspectRatio="xMidYMid meet">

<g transform="translate(0.000000,1350.000000) scale(0.100000,-0.100000)"
fill="#ffffff" stroke="none">
<path d="M3480 10045 l0 -365 1855 0 1855 0 0 365 0 365 -1855 0 -1855 0 0
-365z"/>
<path d="M2230 8305 l0 -365 870 0 870 0 0 -1365 c0 -1303 -1 -1369 -19 -1462
-69 -354 -286 -640 -606 -801 -79 -39 -239 -90 -323 -102 -37 -5 -174 -10
-304 -10 l-238 0 0 -366 0 -366 308 5 c282 4 317 7 427 30 146 32 321 90 435
145 587 282 978 838 1049 1494 7 64 11 563 11 1448 l0 1350 625 0 625 0 0
-1472 c0 -1477 2 -1561 36 -1728 112 -539 522 -1001 1053 -1184 192 -67 279
-80 521 -80 184 0 230 3 316 22 572 124 1024 522 1207 1062 75 219 79 258 84
718 l5 412 -370 0 -371 0 -3 -392 c-4 -369 -5 -397 -26 -463 -48 -155 -156
-327 -262 -417 -173 -149 -358 -218 -580 -218 -188 0 -320 40 -481 146 -175
115 -293 275 -362 490 l-22 69 -3 1518 -2 1517 870 0 870 0 0 365 0 365 -3105
0 -3105 0 0 -365z"/>
</g>
</svg>
